<svg xmlns="http://www.w3.org/2000/svg" width="1500" height="1010" viewBox="0 0 1500 1010" font-family="Helvetica,Arial,sans-serif">
<rect x="0" y="0" width="1500" height="1010" fill="#ffffff"/>
<defs><marker id="ah" markerWidth="10" markerHeight="10" refX="8" refY="3" orient="auto" markerUnits="strokeWidth"><path d="M0,0 L9,3 L0,6 Z" fill="#343a40"/></marker><marker id="ahg" markerWidth="10" markerHeight="10" refX="8" refY="3" orient="auto" markerUnits="strokeWidth"><path d="M0,0 L9,3 L0,6 Z" fill="#adb5bd"/></marker></defs>
<text x="48" y="42" font-size="27" font-weight="700" fill="#212529">AgentForge — Adversarial Machine</text>
<text x="48" y="68" font-size="15" fill="#495057">Continuous multi-agent red-teaming of the live OpenEMR Clinical Co-Pilot</text>
<rect x="30" y="88" width="1050" height="800" rx="14" fill="none" stroke="#1971c2" stroke-width="2.5" stroke-dasharray="2 0"/>
<text x="44" y="110" font-size="13" font-weight="700" letter-spacing="1" fill="#1971c2">AGENTFORGE PLATFORM</text>
<rect x="1112" y="92" width="352" height="478" rx="14" fill="none" stroke="#868e96" stroke-width="2.5" stroke-dasharray="2 0"/>
<text x="1126" y="114" font-size="13" font-weight="700" letter-spacing="1" fill="#868e96">EXTERNAL</text>
<rect x="30" y="910" width="1436" height="62" rx="16" fill="#f1f3f5" stroke="#868e96" stroke-width="2"/>
<text x="748" y="947" font-size="15" font-weight="600" text-anchor="middle" fill="#495057">RAILWAY — Docker from GitHub · managed Postgres · cron · deployment-history rollback</text>
<line x1="312" y1="598" x2="1050" y2="598" stroke="#ced4da" stroke-width="3" stroke-linecap="round"/>
<text x="330" y="592" font-size="10.5" fill="#868e96">agent stack → shared data plane</text>
<polyline points="198,315 300,170" fill="none" stroke="#343a40" stroke-width="2.2" marker-end="url(#ah)" stroke-linejoin="round"/>
<rect x="100" y="234" width="298" height="16" rx="3" fill="#ffffff" opacity="0.9"/>
<text x="249" y="246" font-size="10.5" text-anchor="middle" fill="#495057">coverage gaps · open findings · resilience trend</text>
<polyline points="425,194 425,242" fill="none" stroke="#343a40" stroke-width="2.2" marker-end="url(#ah)" stroke-linejoin="round"/>
<rect x="378" y="209" width="94" height="16" rx="3" fill="#ffffff" opacity="0.9"/>
<text x="425" y="221" font-size="10.5" text-anchor="middle" fill="#495057">campaign brief</text>
<polyline points="550,150 660,150 660,520" fill="none" stroke="#343a40" stroke-width="2.2" marker-end="url(#ah)" stroke-linejoin="round"/>
<rect x="589" y="326" width="142" height="16" rx="3" fill="#ffffff" opacity="0.9"/>
<text x="660" y="338" font-size="10.5" text-anchor="middle" fill="#495057">trigger regression run</text>
<polyline points="550,283 838,283" fill="none" stroke="#343a40" stroke-width="2.2" marker-end="url(#ah)" stroke-linejoin="round"/>
<rect x="644" y="274" width="100" height="16" rx="3" fill="#ffffff" opacity="0.9"/>
<text x="694" y="286" font-size="10.5" text-anchor="middle" fill="#495057">attack sequence</text>
<polyline points="1052,283 1136,330" fill="none" stroke="#343a40" stroke-width="2.2" marker-end="url(#ah)" stroke-linejoin="round"/>
<rect x="990" y="298" width="208" height="16" rx="3" fill="#ffffff" opacity="0.9"/>
<text x="1094" y="310" font-size="10.5" text-anchor="middle" fill="#495057">allowlisted · synthetic data only</text>
<polyline points="1200,392 1200,430 1052,430" fill="none" stroke="#343a40" stroke-width="2.2" marker-end="url(#ah)" stroke-linejoin="round"/>
<rect x="1076" y="421" width="100" height="16" rx="3" fill="#ffffff" opacity="0.9"/>
<text x="1126" y="433" font-size="10.5" text-anchor="middle" fill="#495057">target response</text>
<polyline points="838,432 720,432 720,360 450,360 450,324" fill="none" stroke="#343a40" stroke-width="2.2" stroke-dasharray="7 5" marker-end="url(#ah)" stroke-linejoin="round"/>
<rect x="532" y="351" width="106" height="16" rx="3" fill="#ffffff" opacity="0.9"/>
<text x="585" y="363" font-size="10" text-anchor="middle" fill="#868e96">partial → mutate</text>
<polyline points="838,452 550,452" fill="none" stroke="#343a40" stroke-width="2.2" marker-end="url(#ah)" stroke-linejoin="round"/>
<rect x="638" y="443" width="112" height="16" rx="3" fill="#ffffff" opacity="0.9"/>
<text x="694" y="455" font-size="10.5" text-anchor="middle" fill="#495057">confirmed exploit</text>
<polyline points="945,472 945,548 822,548" fill="none" stroke="#343a40" stroke-width="2.2" marker-end="url(#ah)" stroke-linejoin="round"/>
<rect x="822" y="539" width="124" height="16" rx="3" fill="#ffffff" opacity="0.9"/>
<text x="884" y="551" font-size="10.5" text-anchor="middle" fill="#495057">admission candidate</text>
<polyline points="770,520 770,360 945,360 945,324" fill="none" stroke="#343a40" stroke-width="2.2" marker-end="url(#ah)" stroke-linejoin="round"/>
<rect x="762" y="351" width="190" height="16" rx="3" fill="#ffffff" opacity="0.9"/>
<text x="858" y="363" font-size="10.5" text-anchor="middle" fill="#495057">replay on target change + cron</text>
<polyline points="360,472 250,472 250,772 1150,772" fill="none" stroke="#343a40" stroke-width="2.2" marker-end="url(#ah)" stroke-linejoin="round"/>
<rect x="659" y="763" width="82" height="16" rx="3" fill="#ffffff" opacity="0.9"/>
<text x="700" y="775" font-size="10.5" text-anchor="middle" fill="#495057">draft report</text>
<polyline points="1300,784 1300,812" fill="none" stroke="#343a40" stroke-width="2.2" marker-end="url(#ah)" stroke-linejoin="round"/>
<rect x="1274" y="789" width="52" height="16" rx="3" fill="#ffffff" opacity="0.9"/>
<text x="1300" y="801" font-size="10.5" text-anchor="middle" fill="#495057">publish</text>
<polyline points="686,600 686,618 450,618 450,636" fill="none" stroke="#343a40" stroke-width="2.2" marker-end="url(#ah)" stroke-linejoin="round"/>
<rect x="491" y="609" width="154" height="16" rx="3" fill="#ffffff" opacity="0.9"/>
<text x="568" y="621" font-size="10.5" text-anchor="middle" fill="#495057">state · findings · queue</text>
<polyline points="692,600 692,636" fill="none" stroke="#343a40" stroke-width="2.2" marker-end="url(#ah)" stroke-linejoin="round"/>
<rect x="648" y="609" width="88" height="16" rx="3" fill="#ffffff" opacity="0.9"/>
<text x="692" y="621" font-size="10.5" text-anchor="middle" fill="#495057">traces · cost</text>
<polyline points="300,700 160,700 160,420" fill="none" stroke="#343a40" stroke-width="2.2" marker-end="url(#ah)" stroke-linejoin="round"/>
<rect x="131" y="551" width="58" height="16" rx="3" fill="#ffffff" opacity="0.9"/>
<text x="160" y="563" font-size="10.5" text-anchor="middle" fill="#495057">SQL view</text>
<polyline points="1180,126 1180,102 440,102 440,118" fill="none" stroke="#adb5bd" stroke-width="1.8" stroke-dasharray="7 5" stroke-opacity="0.8" marker-end="url(#ahg)" stroke-linejoin="round"/>
<rect x="781" y="93" width="58" height="16" rx="3" fill="#ffffff" opacity="0.9"/>
<text x="810" y="105" font-size="10" text-anchor="middle" fill="#868e96">Opus 4.8</text>
<polyline points="1180,204 1030,392" fill="none" stroke="#adb5bd" stroke-width="1.8" stroke-dasharray="7 5" stroke-opacity="0.8" marker-end="url(#ahg)" stroke-linejoin="round"/>
<rect x="1070" y="289" width="70" height="16" rx="3" fill="#ffffff" opacity="0.9"/>
<text x="1105" y="301" font-size="10" text-anchor="middle" fill="#868e96">Sonnet 4.6</text>
<polyline points="1210,204 548,404" fill="none" stroke="#adb5bd" stroke-width="1.8" stroke-dasharray="7 5" stroke-opacity="0.8" marker-end="url(#ahg)" stroke-linejoin="round"/>
<rect x="853" y="295" width="52" height="16" rx="3" fill="#ffffff" opacity="0.9"/>
<text x="879" y="307" font-size="10" text-anchor="middle" fill="#868e96">GPT-5.4</text>
<polyline points="1136,505 552,305" fill="none" stroke="#adb5bd" stroke-width="1.8" stroke-dasharray="7 5" stroke-opacity="0.8" marker-end="url(#ahg)" stroke-linejoin="round"/>
<rect x="803" y="396" width="82" height="16" rx="3" fill="#ffffff" opacity="0.9"/>
<text x="844" y="408" font-size="10" text-anchor="middle" fill="#868e96">local 24-33B</text>
<rect x="48" y="250" width="150" height="170" rx="10" fill="#b2f2bb" stroke="#2f9e44" stroke-width="2.5"/>
<text x="123.0" y="329.0" font-size="14.5" font-weight="700" text-anchor="middle" fill="#212529">COVERAGE + FINDINGS</text>
<text x="123.0" y="345.0" font-size="10.5" text-anchor="middle" fill="#495057">SQL view — system of record</text>
<rect x="300" y="118" width="250" height="76" rx="10" fill="#a5d8ff" stroke="#1971c2" stroke-width="2.5"/>
<text x="425.0" y="150.0" font-size="14.5" font-weight="700" text-anchor="middle" fill="#212529">ORCHESTRATOR</text>
<text x="425.0" y="166.0" font-size="10.5" text-anchor="middle" fill="#495057">trusted control plane</text>
<rect x="300" y="242" width="250" height="82" rx="10" fill="#ffc9c9" stroke="#e03131" stroke-width="2.5" stroke-dasharray="8 5"/>
<text x="425.0" y="277.0" font-size="14.5" font-weight="700" text-anchor="middle" fill="#212529">RED TEAM</text>
<text x="425.0" y="293.0" font-size="10.5" text-anchor="middle" fill="#495057">untrusted / quarantined</text>
<rect x="838" y="242" width="214" height="82" rx="10" fill="#ffc9c9" stroke="#e03131" stroke-width="2.5"/>
<text x="945.0" y="277.0" font-size="14.5" font-weight="700" text-anchor="middle" fill="#212529">POLICY GATEWAY</text>
<text x="945.0" y="293.0" font-size="10.5" text-anchor="middle" fill="#495057">allowlist + synthetic data</text>
<rect x="300" y="392" width="250" height="80" rx="10" fill="#96f2d7" stroke="#0ca678" stroke-width="2.5"/>
<text x="425.0" y="426.0" font-size="14.5" font-weight="700" text-anchor="middle" fill="#212529">DOCUMENTATION</text>
<text x="425.0" y="442.0" font-size="10.5" text-anchor="middle" fill="#495057">gated reporting</text>
<rect x="838" y="392" width="214" height="80" rx="10" fill="#d0bfff" stroke="#6741d9" stroke-width="2.5"/>
<text x="945.0" y="426.0" font-size="14.5" font-weight="700" text-anchor="middle" fill="#212529">JUDGE</text>
<text x="945.0" y="442.0" font-size="10.5" text-anchor="middle" fill="#495057">independent evaluator</text>
<rect x="560" y="520" width="262" height="74" rx="10" fill="#a5d8ff" stroke="#1971c2" stroke-width="2.5"/>
<text x="691.0" y="551.0" font-size="14.5" font-weight="700" text-anchor="middle" fill="#212529">REGRESSION HARNESS</text>
<text x="691.0" y="567.0" font-size="10.5" text-anchor="middle" fill="#495057">deterministic admission · target-change + cron</text>
<path d="M300,648 a125.0,12 0 0 1 250,0 v72 a125.0,12 0 0 1 -250,0 z" fill="#b2f2bb" stroke="#2f9e44" stroke-width="2.5"/>
<path d="M300,648 a125.0,12 0 0 0 250,0" fill="none" stroke="#2f9e44" stroke-width="2"/>
<text x="425.0" y="684.0" font-size="14.5" font-weight="700" text-anchor="middle" fill="#212529">POSTGRES</text>
<text x="425.0" y="700.0" font-size="10.5" text-anchor="middle" fill="#495057">exploit DB · checkpoints · SKIP LOCKED queues</text>
<rect x="576" y="636" width="232" height="96" rx="10" fill="#b2f2bb" stroke="#2f9e44" stroke-width="2.5"/>
<text x="692.0" y="678.0" font-size="14.5" font-weight="700" text-anchor="middle" fill="#212529">LANGFUSE + OTEL</text>
<text x="692.0" y="694.0" font-size="10.5" text-anchor="middle" fill="#495057">traces · per-agent cost</text>
<rect x="834" y="636" width="218" height="96" rx="10" fill="#a5d8ff" stroke="#1971c2" stroke-width="2.5"/>
<text x="943.0" y="678.0" font-size="14.5" font-weight="700" text-anchor="middle" fill="#212529">LANGGRAPH</text>
<text x="943.0" y="694.0" font-size="10.5" text-anchor="middle" fill="#495057">orchestration + interrupt()</text>
<rect x="1136" y="126" width="312" height="78" rx="10" fill="#e9ecef" stroke="#868e96" stroke-width="2.5"/>
<text x="1292.0" y="159.0" font-size="14.5" font-weight="700" text-anchor="middle" fill="#212529">MODEL PROVIDERS</text>
<text x="1292.0" y="175.0" font-size="10.5" text-anchor="middle" fill="#495057">hosted frontier</text>
<rect x="1136" y="300" width="312" height="92" rx="10" fill="#e9ecef" stroke="#868e96" stroke-width="2.5"/>
<text x="1292.0" y="340.0" font-size="14.5" font-weight="700" text-anchor="middle" fill="#212529">LIVE OPENEMR CO-PILOT</text>
<text x="1292.0" y="356.0" font-size="10.5" text-anchor="middle" fill="#495057">API + UI</text>
<rect x="1136" y="470" width="312" height="78" rx="10" fill="#e9ecef" stroke="#868e96" stroke-width="2.5"/>
<text x="1292.0" y="503.0" font-size="14.5" font-weight="700" text-anchor="middle" fill="#212529">LOCAL OSS MODEL</text>
<text x="1292.0" y="519.0" font-size="10.5" text-anchor="middle" fill="#495057">Mac · Ollama</text>
<polygon points="1300.0,688 1450,736.0 1300.0,784 1150,736.0" fill="#ffec99" stroke="#f08c00" stroke-width="2.5"/>
<text x="1300.0" y="730.0" font-size="14.5" font-weight="700" text-anchor="middle" fill="#212529">HUMAN APPROVAL</text>
<text x="1300.0" y="746.0" font-size="10.5" text-anchor="middle" fill="#495057">critical publish + remediation</text>
<rect x="1150" y="812" width="300" height="66" rx="10" fill="#e9ecef" stroke="#868e96" stroke-width="2.5"/>
<text x="1300.0" y="847.0" font-size="14.5" font-weight="700" text-anchor="middle" fill="#212529">VULN REPORT</text>
<line x1="786" y1="122" x2="552" y2="150" stroke="#1971c2" stroke-width="1.4" stroke-dasharray="3 3" opacity="0.7"/>
<rect x="786" y="108" width="212" height="28" rx="7" fill="#ffffff" stroke="#1971c2" stroke-width="1.6" stroke-dasharray="5 4"/>
<text x="892.0" y="126.0" font-size="11" font-weight="600" text-anchor="middle" fill="#1971c2">Versioned JSON Schemas</text>
<line x1="892" y1="172" x2="945" y2="242" stroke="#e03131" stroke-width="1.4" stroke-dasharray="3 3" opacity="0.7"/>
<rect x="786" y="144" width="240" height="28" rx="7" fill="#ffffff" stroke="#e03131" stroke-width="1.6" stroke-dasharray="5 4"/>
<text x="906.0" y="162.0" font-size="11" font-weight="600" text-anchor="middle" fill="#e03131">Budget · rate limits · hard abort</text>
<line x1="786" y1="194" x2="556" y2="300" stroke="#6741d9" stroke-width="1.4" stroke-dasharray="3 3" opacity="0.7"/>
<rect x="786" y="180" width="216" height="28" rx="7" fill="#ffffff" stroke="#6741d9" stroke-width="1.6" stroke-dasharray="5 4"/>
<text x="894.0" y="198.0" font-size="11" font-weight="600" text-anchor="middle" fill="#6741d9">OWASP Web + LLM Top 10</text>
<text x="60" y="754" font-size="12" font-weight="700" fill="#212529">LEGEND — trust zones</text>
<rect x="60" y="762" width="18" height="14" fill="#a5d8ff" stroke="#1971c2" stroke-width="1.5"/>
<text x="86" y="773" font-size="11.5" fill="#343a40">trusted control plane</text>
<rect x="60" y="782" width="18" height="14" fill="#b2f2bb" stroke="#2f9e44" stroke-width="1.5"/>
<text x="86" y="793" font-size="11.5" fill="#343a40">data &amp; observability plane</text>
<rect x="60" y="802" width="9" height="14" fill="#d0bfff" stroke="#6741d9" stroke-width="1.5"/>
<rect x="69" y="802" width="9" height="14" fill="#96f2d7" stroke="#0ca678" stroke-width="1.5"/>
<text x="86" y="813" font-size="11.5" fill="#343a40">governed evaluators</text>
<rect x="60" y="822" width="9" height="14" fill="#ffc9c9" stroke="#e03131" stroke-width="1.5"/>
<rect x="69" y="822" width="9" height="14" fill="#ffd8a8" stroke="#e8590c" stroke-width="1.5"/>
<text x="86" y="833" font-size="11.5" fill="#343a40">quarantined (untrusted)</text>
<rect x="60" y="842" width="18" height="14" fill="#e9ecef" stroke="#868e96" stroke-width="1.5"/>
<text x="86" y="853" font-size="11.5" fill="#343a40">external</text>
<rect x="60" y="862" width="18" height="14" fill="#ffec99" stroke="#f08c00" stroke-width="1.5"/>
<text x="86" y="873" font-size="11.5" fill="#343a40">human gate</text>
</svg>
